<svg xmlns="http://www.w3.org/2000/svg" viewBox="0 0 913.62 273.93"><defs><style>.cls-1{fill:#007eff;}.cls-2{fill:#b3ceff;}</style></defs><title>Logo_Full_Color</title><g id="Layer_2" data-name="Layer 2"><g id="Layer_1-2" data-name="Layer 1"><path class="cls-1" d="M0,270V46.59H36.15a20,20,0,0,1,20,20V221.05h87.48v29a20,20,0,0,1-20,20Z"/><path class="cls-1" d="M167.37,270V132.35a20,20,0,0,1,20-20h30.27V270Z"/><path class="cls-1" d="M243.19,270V132.35a20,20,0,0,1,20-20h30.27V270Z"/><path class="cls-1" d="M536.82,270a20,20,0,0,1-20-20V174c0-12.08-5.88-21.22-20.89-21.22-13.71,0-23.5,8.81-28.4,15.34V270H437.25a20,20,0,0,1-20-20V174c0-12.08-5.55-21.22-20.89-21.22-13.38,0-22.85,8.81-28.07,15.34V270H338a20,20,0,0,1-20-20V112.35h31a19.26,19.26,0,0,1,19.26,19.26h0c6.86-9.14,27.09-23.18,51.9-23.18,22.52,0,38.19,9.47,44.72,28.07,9.14-13.71,29.71-28.07,54.52-28.07,29.05,0,47.33,15,47.33,47.33V270Z"/><path class="cls-1" d="M695.75,229.67c-8.77,3.51-18.89,5.42-25.83,5.42-22.85,0-36.56-13.38-39.5-28.07h90.29c12.31,0,20-10.13,20-18,0-49.21-27.11-80.57-78.63-80.57-43.82,0-77.89,36.89-77.89,82.59,0,51.25,36.07,82.92,80.18,82.92,24.16,0,50.27-6.86,65.94-20.89l-10.76-15.89A19.92,19.92,0,0,0,695.75,229.67Zm-33.66-82.39c23.18,0,31.34,16,32.64,27.09h-65C631.73,162.95,640.21,147.28,662.09,147.28Z"/><path class="cls-1" d="M243.19,75.66a25.14,25.14,0,1,1,25.14,25.42A25,25,0,0,1,243.19,75.66Z"/><path class="cls-1" d="M167.37,75.66a25.14,25.14,0,1,1,25.14,25.42A25,25,0,0,1,167.37,75.66Z"/><path class="cls-2" d="M801,134.1l-4.42-9.71a20,20,0,0,0-18.21-11.72H739.63l22.86,50.28a20,20,0,0,0,18.21,11.72h40.62a20,20,0,0,0,18.2-11.72L913.62,0H874.86a20,20,0,0,0-18.21,11.72Z"/><path class="cls-1" d="M739.06,270.32h38.75A20,20,0,0,0,796,258.61l5-11,5,11a20,20,0,0,0,18.21,11.72H863l-23.31-51.27a20,20,0,0,0-18.21-11.72H780.57a20,20,0,0,0-18.2,11.72Z"/></g></g></svg>